<svg xmlns="http://www.w3.org/2000/svg" viewBox="0 0 500 500"><g id="freepik--background-complete--inject-12"><path d="M82.59,243.06l-13.12.28-6.66.11c-2.23.05-4.47,0-6.7.05h-.44v-.45l-.06-11.19v-.5h.5l13.24.06c4.42,0,8.83.11,13.24.17h.28v.27c0,1.9-.09,3.79-.13,5.65Zm0,0-.14-5.66c0-1.86-.11-3.7-.13-5.53l.27.27c-4.41.05-8.82.16-13.24.17l-13.24.06.5-.5,0,11.19-.45-.45c2.18,0,4.36,0,6.55.06l6.58.11Z" style="fill:#ebebeb"></path><path d="M67.82,257.17l-13.12.28-6.66.11c-2.23.05-4.47,0-6.7.05H40.9v-.45L40.84,246v-.5h.5l13.24.06c4.41,0,8.83.11,13.24.17h.28V246c0,1.9-.08,3.79-.13,5.65Zm0,0-.14-5.66c-.05-1.86-.11-3.7-.13-5.53l.27.27c-4.41.05-8.83.16-13.24.16l-13.24.07.5-.5-.05,11.19-.45-.45c2.18,0,4.36,0,6.55.06l6.58.11Z" style="fill:#ebebeb"></path><path d="M458.66,257.17l-13.13.28-6.66.11c-2.22.05-4.46,0-6.69.05h-.45v-.45L431.68,246v-.5h.5l13.24.06c4.41,0,8.83.11,13.24.17h.27V246c0,1.9-.08,3.79-.13,5.65Zm0,0-.14-5.66c0-1.86-.12-3.7-.13-5.53l.27.27c-4.41.05-8.83.16-13.24.16l-13.24.07.5-.5-.06,11.19-.44-.45c2.18,0,4.36,0,6.54.06l6.58.11Z" style="fill:#ebebeb"></path><path d="M443.89,58.7,430.76,59l-6.66.11c-2.22,0-4.46,0-6.69.06H417V58.7l0-11.19V47h.51l13.24.07c4.41,0,8.82.11,13.24.16h.27v.27c0,1.9-.09,3.79-.13,5.66Zm0,0-.14-5.65c-.05-1.86-.12-3.71-.14-5.54l.28.28c-4.42.05-8.83.15-13.24.16L417.41,48l.5-.5-.06,11.19-.44-.44c2.18,0,4.35,0,6.54.05l6.58.11Z" style="fill:#ebebeb"></path><path d="M458.66,72.81l-13.13.28-6.66.11c-2.22,0-4.46,0-6.69.06h-.45v-.45l-.05-11.19v-.5h.5l13.24.07c4.41,0,8.83.11,13.24.16h.27v.27c0,1.9-.08,3.79-.13,5.66Zm0,0-.14-5.65c0-1.86-.12-3.71-.13-5.54l.27.28c-4.41.05-8.83.15-13.24.16l-13.24.06.5-.5-.06,11.19-.44-.44c2.18,0,4.36,0,6.54,0l6.58.11Z" style="fill:#ebebeb"></path><path d="M82.59,58.7,69.47,59l-6.66.11c-2.23,0-4.47,0-6.7.06h-.44V58.7l-.06-11.19V47h.5l13.24.07c4.42,0,8.83.11,13.24.16h.28v.27c0,1.9-.09,3.79-.13,5.66Zm0,0-.14-5.65c0-1.86-.11-3.71-.13-5.54l.27.28c-4.41.05-8.82.15-13.24.16L56.11,48l.5-.5,0,11.19-.45-.44c2.18,0,4.36,0,6.55.05l6.58.11Z" style="fill:#ebebeb"></path><rect x="358.57" y="289.3" width="74.84" height="103.56" style="fill:#ebebeb"></rect><rect x="354.94" y="285.46" width="82.09" height="3.84" style="fill:#dbdbdb"></rect><rect x="437.03" y="285.46" width="25.82" height="3.84" style="fill:#ebebeb"></rect><rect x="433.41" y="289.3" width="25.35" height="103.56" style="fill:#dbdbdb"></rect><path d="M425.38,337.26H366.6V304h58.78ZM366.85,337h58.28V304.26H366.85Z" style="fill:#c7c7c7"></path><rect x="387.79" y="313.75" width="11.43" height="6.57" style="fill:#c7c7c7"></rect><path d="M402.73,320H391.05v-5.83h11.68Zm-11.43-.25h11.18v-5.33H391.3Z" style="fill:#c7c7c7"></path><path d="M425.38,379H366.6V345.71h58.78Zm-58.53-.25h58.28V346H366.85Z" style="fill:#c7c7c7"></path><rect x="387.79" y="355.44" width="11.43" height="6.57" style="fill:#c7c7c7"></rect><path d="M402.73,361.64H391.05v-5.83h11.68Zm-11.43-.25h11.18v-5.33H391.3Z" style="fill:#c7c7c7"></path><rect x="187.97" y="76.96" width="270.96" height="118.27" style="fill:#fff"></rect><polygon points="458.92 149 458.92 197.19 346.88 197.19 346.88 115.94 366.06 115.94 366.06 139.25 371.01 139.25 371.01 126.06 395.4 126.06 395.4 146.95 398.64 146.95 398.64 97.92 419.84 97.92 419.84 111.38 430.72 111.38 430.72 128.11 434 128.11 434 117.58 453.28 117.58 453.28 149 458.92 149" style="fill:#ebebeb"></polygon><rect x="349.23" y="118.87" width="3.25" height="4.45" style="fill:#fff"></rect><rect x="354.86" y="118.87" width="3.25" height="4.45" style="fill:#fff"></rect><rect x="360.49" y="118.87" width="3.25" height="4.45" style="fill:#fff"></rect><rect x="349.23" y="125.57" width="3.25" height="4.45" style="fill:#fff"></rect><rect x="354.86" y="125.57" width="3.25" height="4.45" style="fill:#fff"></rect><rect x="360.49" y="125.57" width="3.25" height="4.45" style="fill:#fff"></rect><rect x="349.23" y="132.28" width="3.25" height="4.46" style="fill:#fff"></rect><rect x="354.86" y="132.28" width="3.25" height="4.46" style="fill:#fff"></rect><rect x="360.49" y="132.28" width="3.25" height="4.46" style="fill:#fff"></rect><rect x="349.23" y="138.98" width="3.25" height="4.45" style="fill:#fff"></rect><rect x="354.86" y="138.98" width="3.25" height="4.45" style="fill:#fff"></rect><rect x="360.49" y="138.98" width="3.25" height="4.45" style="fill:#fff"></rect><rect x="373.78" y="128.91" width="18.69" height="2.79" style="fill:#fff"></rect><rect x="373.78" y="134.31" width="18.69" height="2.79" style="fill:#fff"></rect><rect x="373.78" y="139.72" width="18.69" height="2.79" style="fill:#fff"></rect><rect x="373.78" y="145.13" width="18.69" height="2.79" style="fill:#fff"></rect><rect x="373.78" y="150.53" width="18.69" height="2.79" style="fill:#fff"></rect><rect x="373.78" y="155.94" width="18.69" height="2.79" style="fill:#fff"></rect><rect x="373.78" y="161.34" width="18.69" height="2.79" style="fill:#fff"></rect><rect x="373.78" y="166.75" width="18.69" height="2.79" style="fill:#fff"></rect><rect x="439.64" y="120.11" width="5.77" height="2.69" style="fill:#fff"></rect><rect x="439.64" y="125.33" width="5.77" height="2.69" style="fill:#fff"></rect><rect x="439.64" y="130.55" width="5.77" height="2.69" style="fill:#fff"></rect><rect x="439.64" y="135.77" width="5.77" height="2.69" style="fill:#fff"></rect><rect x="439.64" y="140.99" width="5.77" height="2.69" style="fill:#fff"></rect><rect x="439.64" y="146.21" width="5.77" height="2.69" style="fill:#fff"></rect><rect x="439.64" y="151.43" width="5.77" height="2.69" style="fill:#fff"></rect><rect x="439.64" y="156.65" width="5.77" height="2.69" style="fill:#fff"></rect><rect x="447.5" y="120.11" width="5.77" height="2.69" style="fill:#fff"></rect><rect x="447.5" y="125.33" width="5.77" height="2.69" style="fill:#fff"></rect><rect x="447.5" y="130.55" width="5.77" height="2.69" style="fill:#fff"></rect><rect x="447.5" y="135.77" width="5.77" height="2.69" style="fill:#fff"></rect><rect x="447.5" y="140.99" width="5.77" height="2.69" style="fill:#fff"></rect><rect x="447.5" y="146.21" width="5.77" height="2.69" style="fill:#fff"></rect><rect x="447.5" y="151.43" width="5.77" height="2.69" style="fill:#fff"></rect><rect x="447.5" y="156.65" width="5.77" height="2.69" style="fill:#fff"></rect><rect x="401.85" y="100.74" width="6.01" height="4.24" style="fill:#fff"></rect><rect x="410.82" y="100.74" width="6.01" height="4.24" style="fill:#fff"></rect><rect x="401.85" y="106.97" width="6.01" height="4.24" style="fill:#fff"></rect><rect x="410.82" y="106.97" width="6.01" height="4.24" style="fill:#fff"></rect><rect x="401.85" y="113.21" width="6.01" height="4.24" style="fill:#fff"></rect><rect x="410.82" y="113.21" width="6.01" height="4.24" style="fill:#fff"></rect><rect x="401.85" y="119.44" width="6.01" height="4.24" style="fill:#fff"></rect><rect x="410.82" y="119.44" width="6.01" height="4.24" style="fill:#fff"></rect><rect x="401.85" y="125.67" width="6.01" height="4.24" style="fill:#fff"></rect><rect x="410.82" y="125.67" width="6.01" height="4.24" style="fill:#fff"></rect><rect x="401.85" y="131.91" width="6.01" height="4.24" style="fill:#fff"></rect><rect x="410.82" y="131.91" width="6.01" height="4.24" style="fill:#fff"></rect><rect x="401.85" y="138.14" width="6.01" height="4.24" style="fill:#fff"></rect><rect x="410.82" y="138.14" width="6.01" height="4.24" style="fill:#fff"></rect><rect x="401.85" y="144.37" width="6.01" height="4.24" style="fill:#fff"></rect><rect x="410.82" y="144.37" width="6.01" height="4.24" style="fill:#fff"></rect><rect x="421.93" y="113.21" width="6.01" height="4.24" style="fill:#fff"></rect><rect x="421.93" y="119.44" width="6.01" height="4.24" style="fill:#fff"></rect><rect x="421.93" y="125.67" width="6.01" height="4.24" style="fill:#fff"></rect><rect x="421.93" y="131.91" width="6.01" height="4.24" style="fill:#fff"></rect><rect x="421.93" y="138.14" width="6.01" height="4.24" style="fill:#fff"></rect><rect x="421.93" y="144.37" width="6.01" height="4.24" style="fill:#fff"></rect><rect x="401.85" y="150.53" width="6.01" height="4.24" style="fill:#fff"></rect><rect x="410.82" y="150.53" width="6.01" height="4.24" style="fill:#fff"></rect><rect x="421.93" y="150.53" width="6.01" height="4.24" style="fill:#fff"></rect><rect x="401.85" y="156.69" width="6.01" height="4.24" style="fill:#fff"></rect><rect x="410.82" y="156.69" width="6.01" height="4.24" style="fill:#fff"></rect><rect x="421.93" y="156.69" width="6.01" height="4.24" style="fill:#fff"></rect><rect x="401.85" y="162.85" width="6.01" height="4.24" style="fill:#fff"></rect><rect x="410.82" y="162.85" width="6.01" height="4.24" style="fill:#fff"></rect><rect x="421.93" y="162.85" width="6.01" height="4.24" style="fill:#fff"></rect><rect x="401.85" y="169.01" width="6.01" height="4.24" style="fill:#fff"></rect><rect x="410.82" y="169.01" width="6.01" height="4.24" style="fill:#fff"></rect><rect x="421.93" y="169.01" width="6.01" height="4.24" style="fill:#fff"></rect><rect x="401.85" y="175.17" width="6.01" height="4.24" style="fill:#fff"></rect><rect x="410.82" y="175.17" width="6.01" height="4.24" style="fill:#fff"></rect><rect x="421.93" y="175.17" width="6.01" height="4.24" style="fill:#fff"></rect><polygon points="346.88 197.2 186.69 197.2 186.69 115.94 205.88 115.94 205.88 139.24 210.81 139.24 210.81 126.05 235.21 126.05 235.21 146.94 238.44 146.94 238.44 97.92 259.65 97.92 259.65 111.37 270.52 111.37 270.52 128.12 273.81 128.12 273.81 117.59 293.09 117.59 293.09 149 298.73 149 298.73 123.47 316.36 123.47 316.36 104.06 328.34 104.06 342.21 104.13 342.21 142.02 346.88 142.02 346.88 197.2" style="fill:#ebebeb"></polygon><rect x="189.04" y="118.87" width="3.25" height="4.45" style="fill:#fff"></rect><rect x="194.67" y="118.87" width="3.25" height="4.45" style="fill:#fff"></rect><rect x="200.29" y="118.87" width="3.25" height="4.45" style="fill:#fff"></rect><rect x="189.04" y="125.57" width="3.25" height="4.45" style="fill:#fff"></rect><rect x="194.67" y="125.57" width="3.25" height="4.45" style="fill:#fff"></rect><rect x="200.29" y="125.57" width="3.25" height="4.45" style="fill:#fff"></rect><rect x="189.04" y="132.28" width="3.25" height="4.46" style="fill:#fff"></rect><rect x="194.67" y="132.28" width="3.25" height="4.46" style="fill:#fff"></rect><rect x="200.29" y="132.28" width="3.25" height="4.46" style="fill:#fff"></rect><rect x="189.04" y="138.98" width="3.25" height="4.45" style="fill:#fff"></rect><rect x="194.67" y="138.98" width="3.25" height="4.45" style="fill:#fff"></rect><rect x="200.29" y="138.98" width="3.25" height="4.45" style="fill:#fff"></rect><rect x="301.43" y="126.65" width="3.25" height="3.72" style="fill:#fff"></rect><rect x="307.06" y="126.65" width="3.25" height="3.72" style="fill:#fff"></rect><rect x="312.69" y="126.65" width="3.25" height="3.72" style="fill:#fff"></rect><rect x="301.43" y="132.24" width="3.25" height="3.72" style="fill:#fff"></rect><rect x="307.06" y="132.24" width="3.25" height="3.72" style="fill:#fff"></rect><rect x="312.69" y="132.24" width="3.25" height="3.72" style="fill:#fff"></rect><rect x="301.43" y="137.83" width="3.25" height="3.72" style="fill:#fff"></rect><rect x="307.06" y="137.83" width="3.25" height="3.72" style="fill:#fff"></rect><rect x="312.69" y="137.83" width="3.25" height="3.72" style="fill:#fff"></rect><rect x="301.43" y="143.42" width="3.25" height="3.72" style="fill:#fff"></rect><rect x="307.06" y="143.42" width="3.25" height="3.72" style="fill:#fff"></rect><rect x="312.69" y="143.42" width="3.25" height="3.72" style="fill:#fff"></rect><rect x="301.43" y="149.15" width="3.25" height="3.72" style="fill:#fff"></rect><rect x="307.06" y="149.15" width="3.25" height="3.72" style="fill:#fff"></rect><rect x="312.69" y="149.15" width="3.25" height="3.72" style="fill:#fff"></rect><rect x="301.43" y="154.88" width="3.25" height="3.72" style="fill:#fff"></rect><rect x="307.06" y="154.88" width="3.25" height="3.72" style="fill:#fff"></rect><rect x="312.69" y="154.88" width="3.25" height="3.72" style="fill:#fff"></rect><rect x="301.43" y="160.62" width="3.25" height="3.72" style="fill:#fff"></rect><rect x="307.06" y="160.62" width="3.25" height="3.72" style="fill:#fff"></rect><rect x="312.69" y="160.62" width="3.25" height="3.72" style="fill:#fff"></rect><rect x="301.43" y="166.35" width="3.25" height="3.72" style="fill:#fff"></rect><rect x="307.06" y="166.35" width="3.25" height="3.72" style="fill:#fff"></rect><rect x="312.69" y="166.35" width="3.25" height="3.72" style="fill:#fff"></rect><rect x="213.58" y="128.91" width="18.69" height="2.79" style="fill:#fff"></rect><rect x="213.58" y="134.31" width="18.69" height="2.79" style="fill:#fff"></rect><rect x="213.58" y="139.72" width="18.69" height="2.79" style="fill:#fff"></rect><rect x="213.58" y="145.13" width="18.69" height="2.79" style="fill:#fff"></rect><rect x="213.58" y="150.53" width="18.69" height="2.79" style="fill:#fff"></rect><rect x="213.58" y="155.94" width="18.69" height="2.79" style="fill:#fff"></rect><rect x="213.58" y="161.34" width="18.69" height="2.79" style="fill:#fff"></rect><rect x="213.58" y="166.75" width="18.69" height="2.79" style="fill:#fff"></rect><rect x="279.45" y="120.11" width="5.77" height="2.69" style="fill:#fff"></rect><rect x="279.45" y="125.33" width="5.77" height="2.69" style="fill:#fff"></rect><rect x="279.45" y="130.55" width="5.77" height="2.69" style="fill:#fff"></rect><rect x="279.45" y="135.77" width="5.77" height="2.69" style="fill:#fff"></rect><rect x="279.45" y="140.99" width="5.77" height="2.69" style="fill:#fff"></rect><rect x="279.45" y="146.21" width="5.77" height="2.69" style="fill:#fff"></rect><rect x="279.45" y="151.43" width="5.77" height="2.69" style="fill:#fff"></rect><rect x="279.45" y="156.65" width="5.77" height="2.69" style="fill:#fff"></rect><rect x="287.3" y="120.11" width="5.77" height="2.69" style="fill:#fff"></rect><rect x="287.3" y="125.33" width="5.77" height="2.69" style="fill:#fff"></rect><rect x="287.3" y="130.55" width="5.77" height="2.69" style="fill:#fff"></rect><rect x="287.3" y="135.77" width="5.77" height="2.69" style="fill:#fff"></rect><rect x="287.3" y="140.99" width="5.77" height="2.69" style="fill:#fff"></rect><rect x="287.3" y="146.21" width="5.77" height="2.69" style="fill:#fff"></rect><rect x="287.3" y="151.43" width="5.77" height="2.69" style="fill:#fff"></rect><rect x="287.3" y="156.65" width="5.77" height="2.69" style="fill:#fff"></rect><rect x="241.66" y="100.74" width="6.01" height="4.24" style="fill:#fff"></rect><rect x="250.62" y="100.74" width="6.01" height="4.24" style="fill:#fff"></rect><rect x="241.66" y="106.97" width="6.01" height="4.24" style="fill:#fff"></rect><rect x="250.62" y="106.97" width="6.01" height="4.24" style="fill:#fff"></rect><rect x="241.66" y="113.21" width="6.01" height="4.24" style="fill:#fff"></rect><rect x="250.62" y="113.21" width="6.01" height="4.24" style="fill:#fff"></rect><rect x="241.66" y="119.44" width="6.01" height="4.24" style="fill:#fff"></rect><rect x="250.62" y="119.44" width="6.01" height="4.24" style="fill:#fff"></rect><rect x="241.66" y="125.67" width="6.01" height="4.24" style="fill:#fff"></rect><rect x="250.62" y="125.67" width="6.01" height="4.24" style="fill:#fff"></rect><rect x="241.66" y="131.91" width="6.01" height="4.24" style="fill:#fff"></rect><rect x="250.62" y="131.91" width="6.01" height="4.24" style="fill:#fff"></rect><rect x="241.66" y="138.14" width="6.01" height="4.24" style="fill:#fff"></rect><rect x="250.62" y="138.14" width="6.01" height="4.24" style="fill:#fff"></rect><rect x="241.66" y="144.37" width="6.01" height="4.24" style="fill:#fff"></rect><rect x="250.62" y="144.37" width="6.01" height="4.24" style="fill:#fff"></rect><rect x="261.73" y="113.21" width="6.01" height="4.24" style="fill:#fff"></rect><rect x="261.73" y="119.44" width="6.01" height="4.24" style="fill:#fff"></rect><rect x="261.73" y="125.67" width="6.01" height="4.24" style="fill:#fff"></rect><rect x="261.73" y="131.91" width="6.01" height="4.24" style="fill:#fff"></rect><rect x="261.73" y="138.14" width="6.01" height="4.24" style="fill:#fff"></rect><rect x="261.73" y="144.37" width="6.01" height="4.24" style="fill:#fff"></rect><rect x="241.66" y="150.53" width="6.01" height="4.24" style="fill:#fff"></rect><rect x="250.62" y="150.53" width="6.01" height="4.24" style="fill:#fff"></rect><rect x="261.73" y="150.53" width="6.01" height="4.24" style="fill:#fff"></rect><rect x="241.66" y="156.69" width="6.01" height="4.24" style="fill:#fff"></rect><rect x="250.62" y="156.69" width="6.01" height="4.24" style="fill:#fff"></rect><rect x="261.73" y="156.69" width="6.01" height="4.24" style="fill:#fff"></rect><rect x="241.66" y="162.85" width="6.01" height="4.24" style="fill:#fff"></rect><rect x="250.62" y="162.85" width="6.01" height="4.24" style="fill:#fff"></rect><rect x="261.73" y="162.85" width="6.01" height="4.24" style="fill:#fff"></rect><rect x="241.66" y="169.01" width="6.01" height="4.24" style="fill:#fff"></rect><rect x="250.62" y="169.01" width="6.01" height="4.24" style="fill:#fff"></rect><rect x="261.73" y="169.01" width="6.01" height="4.24" style="fill:#fff"></rect><rect x="241.66" y="175.17" width="6.01" height="4.24" style="fill:#fff"></rect><rect x="250.62" y="175.17" width="6.01" height="4.24" style="fill:#fff"></rect><rect x="261.73" y="175.17" width="6.01" height="4.24" style="fill:#fff"></rect><rect x="318.81" y="106.8" width="3.25" height="3.72" style="fill:#fff"></rect><rect x="324.43" y="106.8" width="3.25" height="3.72" style="fill:#fff"></rect><rect x="318.81" y="112.39" width="3.25" height="3.72" style="fill:#fff"></rect><rect x="324.43" y="112.39" width="3.25" height="3.72" style="fill:#fff"></rect><rect x="318.81" y="117.98" width="3.25" height="3.72" style="fill:#fff"></rect><rect x="324.43" y="117.98" width="3.25" height="3.72" style="fill:#fff"></rect><rect x="318.81" y="123.57" width="3.25" height="3.72" style="fill:#fff"></rect><rect x="324.43" y="123.57" width="3.25" height="3.72" style="fill:#fff"></rect><rect x="318.81" y="129.3" width="3.25" height="3.72" style="fill:#fff"></rect><rect x="324.43" y="129.3" width="3.25" height="3.72" style="fill:#fff"></rect><rect x="318.81" y="135.04" width="3.25" height="3.72" style="fill:#fff"></rect><rect x="324.43" y="135.04" width="3.25" height="3.72" style="fill:#fff"></rect><rect x="318.81" y="140.77" width="3.25" height="3.72" style="fill:#fff"></rect><rect x="324.43" y="140.77" width="3.25" height="3.72" style="fill:#fff"></rect><rect x="318.81" y="146.5" width="3.25" height="3.72" style="fill:#fff"></rect><rect x="324.43" y="146.5" width="3.25" height="3.72" style="fill:#fff"></rect><rect x="318.81" y="152.29" width="3.25" height="3.72" style="fill:#fff"></rect><rect x="324.43" y="152.29" width="3.25" height="3.72" style="fill:#fff"></rect><rect x="318.81" y="158.08" width="3.25" height="3.72" style="fill:#fff"></rect><rect x="324.43" y="158.08" width="3.25" height="3.72" style="fill:#fff"></rect><rect x="318.81" y="163.87" width="3.25" height="3.72" style="fill:#fff"></rect><rect x="324.43" y="163.87" width="3.25" height="3.72" style="fill:#fff"></rect><rect x="318.81" y="169.66" width="3.25" height="3.72" style="fill:#fff"></rect><rect x="324.43" y="169.66" width="3.25" height="3.72" style="fill:#fff"></rect><rect x="330.84" y="106.8" width="3.25" height="3.72" style="fill:#fff"></rect><rect x="336.46" y="106.8" width="3.25" height="3.72" style="fill:#fff"></rect><rect x="330.84" y="112.39" width="3.25" height="3.72" style="fill:#fff"></rect><rect x="336.46" y="112.39" width="3.25" height="3.72" style="fill:#fff"></rect><rect x="330.84" y="117.98" width="3.25" height="3.72" style="fill:#fff"></rect><rect x="336.46" y="117.98" width="3.25" height="3.72" style="fill:#fff"></rect><rect x="330.84" y="123.57" width="3.25" height="3.72" style="fill:#fff"></rect><rect x="336.46" y="123.57" width="3.25" height="3.72" style="fill:#fff"></rect><rect x="330.84" y="129.3" width="3.25" height="3.72" style="fill:#fff"></rect><rect x="336.46" y="129.3" width="3.25" height="3.72" style="fill:#fff"></rect><rect x="330.84" y="135.04" width="3.25" height="3.72" style="fill:#fff"></rect><rect x="336.46" y="135.04" width="3.25" height="3.72" style="fill:#fff"></rect><rect x="330.84" y="140.77" width="3.25" height="3.72" style="fill:#fff"></rect><rect x="336.46" y="140.77" width="3.25" height="3.72" style="fill:#fff"></rect><rect x="330.84" y="146.5" width="3.25" height="3.72" style="fill:#fff"></rect><rect x="336.46" y="146.5" width="3.25" height="3.72" style="fill:#fff"></rect><rect x="330.84" y="152.29" width="3.25" height="3.72" style="fill:#fff"></rect><rect x="336.46" y="152.29" width="3.25" height="3.72" style="fill:#fff"></rect><rect x="330.84" y="158.08" width="3.25" height="3.72" style="fill:#fff"></rect><rect x="336.46" y="158.08" width="3.25" height="3.72" style="fill:#fff"></rect><rect x="330.84" y="163.87" width="3.25" height="3.72" style="fill:#fff"></rect><rect x="336.46" y="163.87" width="3.25" height="3.72" style="fill:#fff"></rect><rect x="330.84" y="169.66" width="3.25" height="3.72" style="fill:#fff"></rect><rect x="336.46" y="169.66" width="3.25" height="3.72" style="fill:#fff"></rect><path d="M184,73V199.17H462.85V73Zm274.88,122.2H188V77h271Z" style="fill:#dbdbdb"></path><rect x="321.48" y="76.96" width="3.93" height="118.27" style="fill:#dbdbdb"></rect><rect x="65.56" y="-0.6" width="0.71" height="97.75" style="fill:#c7c7c7"></rect><polygon points="95.36 125.53 92.99 130.74 38.83 130.74 36.47 125.53 59.53 109.57 72.3 109.57 95.36 125.53" style="fill:#ebebeb"></polygon><polygon points="73.9 94.2 72.3 109.57 59.53 109.57 57.93 94.2 73.9 94.2" style="fill:#dbdbdb"></polygon><polygon points="95.36 125.53 92.99 130.74 38.83 130.74 36.47 125.53 95.36 125.53" style="fill:#dbdbdb"></polygon><rect x="128.78" y="-0.6" width="0.71" height="70.96" style="fill:#c7c7c7"></rect><polygon points="158.58 98.74 156.21 103.94 102.06 103.94 99.69 98.74 122.75 82.78 135.53 82.78 158.58 98.74" style="fill:#ebebeb"></polygon><polygon points="137.13 67.4 135.53 82.78 122.75 82.78 121.15 67.4 137.13 67.4" style="fill:#dbdbdb"></polygon><polygon points="158.58 98.74 156.21 103.94 102.05 103.94 99.69 98.74 158.58 98.74" style="fill:#dbdbdb"></polygon></g><g id="freepik--Shadow--inject-12"><ellipse cx="250" cy="448.44" rx="143.61" ry="14.98" style="fill:#ebebeb"></ellipse></g><g id="freepik--Desk--inject-12"><rect x="69.48" y="251.63" width="76.87" height="141.23" style="fill:#455a64"></rect><rect x="69.48" y="251.63" width="76.87" height="9.21" style="fill:#263238"></rect><rect x="36.47" y="244.21" width="281.36" height="7.43" transform="translate(354.29 495.84) rotate(180)" style="fill:#455a64"></rect><polygon points="301.43 251.63 301.68 260.84 304.92 392.86 310.79 392.86 310.79 251.63 301.43 251.63" style="fill:#455a64"></polygon><polygon points="310.79 251.63 301.43 251.63 301.68 260.84 310.79 260.84 310.79 251.63" style="fill:#263238"></polygon><rect x="43.43" y="251.63" width="26.05" height="141.23" style="fill:#37474f"></rect><rect x="43.43" y="251.63" width="26.05" height="9.21" style="fill:#263238"></rect></g><g id="freepik--Floor--inject-12"><polygon points="36.47 392.86 89.85 392.62 143.23 392.53 250 392.37 356.77 392.53 410.15 392.62 463.53 392.86 410.15 393.11 356.77 393.2 250 393.36 143.23 393.19 89.85 393.11 36.47 392.86" style="fill:#263238"></polygon></g><g id="freepik--Character--inject-12"><path d="M258.65,442.91c-2.22.72-65.36-.1-67.74-1.66-.92-.58-1.34-9.78-1.52-20.92V420c0-2.3-.08-4.66-.08-7.06,0-.33,0-.66,0-1l3.06-32.76,42.24.43-4.17,32.45,0,1.28-.26,6.72,0,.69s24,11.13,26.47,13.12S260.87,442.21,258.65,442.91Z" style="fill:#d3766a"></path><path d="M258.65,442.91c-2.22.72-65.36-.1-67.74-1.66-.92-.58-1.34-9.78-1.52-20.92V420c0-2.3-.08-4.66-.08-7.06,0-.33,0-.66,0-1l41.13.12,0,1.28-.26,6.72,0,.69s24,11.13,26.47,13.12S260.87,442.21,258.65,442.91Z" style="fill:#ebebeb"></path><path d="M259.07,443.08c-2.25.72-66.25-.14-68.67-1.71-.93-.59-1.35-9.92-1.53-21.21l41.26.43s24.37,11.29,26.83,13.3S261.31,442.36,259.07,443.08Z" style="fill:#455a64"></path><path d="M220.23,443c-14.95-.34-28.74-.91-29.83-1.63-.92-.6-1.35-9.92-1.53-21.21l9.32.1Z" style="fill:#37474f"></path><path d="M258.18,440.5c-10.72-.4-54-1-64.65-.61-.09,0-.09.06,0,.06,10.63.64,53.93.91,64.66.73C258.41,440.68,258.41,440.51,258.18,440.5Z" style="fill:#263238"></path><path d="M252.88,431.53a8.61,8.61,0,0,0-6.46,2.54,8.34,8.34,0,0,0-2.47,5.69c0,.07.12.07.13,0a10,10,0,0,1,8.8-8.09A.07.07,0,0,0,252.88,431.53Z" style="fill:#263238"></path><path d="M234.28,421.71c-4.29-.11-9.29,1.34-12,4.81-.1.14.09.28.22.22a59.6,59.6,0,0,1,11.86-4.5A.27.27,0,0,0,234.28,421.71Z" style="fill:#263238"></path><path d="M237.58,423.05c-4.29-.12-9.29,1.33-12,4.81-.1.13.09.28.22.22a59.6,59.6,0,0,1,11.86-4.5A.27.27,0,0,0,237.58,423.05Z" style="fill:#263238"></path><path d="M240.88,424.39c-4.3-.12-9.29,1.33-12,4.81-.1.13.09.28.22.21A59,59,0,0,1,241,424.92.27.27,0,0,0,240.88,424.39Z" style="fill:#263238"></path><path d="M244.18,425.72c-4.3-.11-9.3,1.34-12,4.81-.11.14.09.28.21.22a59.6,59.6,0,0,1,11.86-4.5A.27.27,0,0,0,244.18,425.72Z" style="fill:#263238"></path><path d="M196.39,429.73c-4.81-.05-4.9,7.44-.07,7.49S201.22,429.78,196.39,429.73Z" style="fill:#263238"></path><path d="M232.9,420.19H187.43s9.15-106.22,8.8-108.07c-.46-2.38-3.14-13.13-6.72-27.17-1.12-4.4-2.33-9.11-3.58-14-3.39-13.21-7.13-27.65-10.39-40.22-4.88-18.83-8.7-33.45-8.7-33.45h38.54s4.49,14.24,10.15,32.76c9.23,30.11,21.56,71.55,22.77,81.63C240.27,327.93,232.9,420.19,232.9,420.19Z" style="fill:#263238"></path><path d="M230.89,412.43c-6.95-.14-4.95-.2-11.9-.27-3.4,0-25.74-.22-28.91.3a.07.07,0,0,0,0,.14c3.17.53,25.51.34,28.91.3,6.95-.06,4.95-.12,11.9-.27A.1.1,0,0,0,230.89,412.43Z" style="fill:#37474f"></path><path d="M204.78,305.63c-1.49-6.58-3.72-13-5.66-19.47q-5.91-19.67-11.89-39.31-3-9.82-6-19.64c-1-3.31-2-6.61-3.07-9.91s-2.16-6.43-3.08-9.69c-.37-1.32-.57-.59-.09,1.09.95,3.39,1.9,6.79,2.89,10.17q2.94,10,5.91,20.09,5.93,20,11.93,39.94,3,10,6,20a80.25,80.25,0,0,1,2.46,9.68,44.25,44.25,0,0,1,.4,10.35c-.43,7-1.24,13.91-1.88,20.85s-1.29,13.91-1.93,20.87q-1.92,20.76-3.81,41.53c-.16,1.76-.31,3.51-.45,5.27,0,.59.85.54.91,0,1.5-13.69,2.64-27.43,3.93-41.14s2.56-27.28,3.83-40.92c.32-3.43.69-6.86.69-10.3A42.39,42.39,0,0,0,204.78,305.63Z" style="fill:#37474f"></path><path d="M201,197.28c-2.68,20.7-7.78,59.51-11.5,87.67-8.69-34.12-22.67-87.67-22.67-87.67Z" style="fill:#37474f"></path><path d="M210.47,443.52c-2.21.73-65.36.14-67.74-1.41-.92-.58-1.37-9.78-1.6-20.92v-.35c0-2.3-.09-4.66-.1-7.06,0-.33,0-.66,0-1-.15-16.07,1-32.75,1-32.75l41.28.26-1.15,32.46L182.1,414l-.23,6.72,0,.69s24.07,11,26.52,13S212.69,442.81,210.47,443.52Z" style="fill:#d3766a"></path><path d="M210.47,443.52c-2.21.73-65.36.14-67.74-1.41-.92-.58-1.37-9.78-1.6-20.92v-.35c0-2.3-.09-4.66-.1-7.06,0-.33,0-.66,0-1l41.14,0L182.1,414l-.23,6.72,0,.69s24.07,11,26.52,13S212.69,442.81,210.47,443.52Z" style="fill:#ebebeb"></path><path d="M211.21,443.74c-2.25.72-66.25-.13-68.67-1.7-.92-.6-1.34-9.93-1.53-21.21l41.27.43s24.36,11.28,26.83,13.3S213.46,443,211.21,443.74Z" style="fill:#455a64"></path><path d="M210.33,441.17c-10.73-.41-54-1-64.66-.62-.09,0-.09.07,0,.07,10.62.63,53.92.91,64.65.73C210.55,441.34,210.55,441.18,210.33,441.17Z" style="fill:#263238"></path><path d="M205,432.2a8.63,8.63,0,0,0-6.45,2.53,8.4,8.4,0,0,0-2.48,5.7c0,.06.12.07.13,0a10,10,0,0,1,8.8-8.1A.07.07,0,1,0,205,432.2Z" style="fill:#263238"></path><path d="M186.43,422.38c-4.3-.12-9.3,1.33-12,4.81-.11.13.09.28.21.22a59,59,0,0,1,11.86-4.5A.27.27,0,0,0,186.43,422.38Z" style="fill:#263238"></path><path d="M189.72,423.72c-4.29-.12-9.29,1.33-12,4.81-.11.13.08.28.21.21a59,59,0,0,1,11.86-4.49A.27.27,0,0,0,189.72,423.72Z" style="fill:#263238"></path><path d="M193,425.05c-4.29-.11-9.29,1.34-12,4.81-.1.14.09.28.22.22a59.6,59.6,0,0,1,11.86-4.5A.27.27,0,0,0,193,425.05Z" style="fill:#263238"></path><path d="M196.32,426.39c-4.29-.12-9.29,1.33-12,4.81-.1.13.09.28.22.22a59,59,0,0,1,11.86-4.5A.27.27,0,0,0,196.32,426.39Z" style="fill:#263238"></path><path d="M204.14,197.28s-.89,18.44-5.11,33c-.34,1.21-.71,2.4-1.1,3.54a67.92,67.92,0,0,0-11.11,5.71s-.45,14.83-.89,31.38c-.49,18.5-1,39.13-.9,43.51.39,16.37-2.05,106.4-2.05,106.4l-45.47.18s8.22-100.54,8.17-106.53c-.09-9.64,2.2-52.25,4-83.33,1.08-19.14,2-33.9,2-33.9Z" style="fill:#263238"></path><path d="M181.42,412.77c-6.94-.12-4.95-.18-11.89-.22-3.4,0-25.74-.12-28.92.42a.07.07,0,0,0,0,.14c3.17.52,25.51.23,28.91.18,6.95-.1,4.95-.14,11.89-.32A.1.1,0,1,0,181.42,412.77Z" style="fill:#37474f"></path><path d="M155.44,203.87c-.84,25.36-1.73,50.73-2.86,76.09s-2.67,50.87-4.8,76.25c-1.19,14.18-2.31,34.13-3.84,48.28,0,.09.13.13.15,0,3.31-25.16,5.15-56.28,6.78-81.6s2.73-50.68,3.59-76c.49-14.34.87-28.69,1.29-43C155.76,203.65,155.44,203.66,155.44,203.87Z" style="fill:#37474f"></path><path d="M199.82,232.76a83.75,83.75,0,0,0-13,6.81.15.15,0,0,0,.13.27c4.39-2.14,8.87-4.19,13.13-6.56A.29.29,0,0,0,199.82,232.76Z" style="fill:#37474f"></path><path d="M200.07,217.11c-.3,1.62-.69,3.22-1,4.83s-.57,3-1,4.53a7.64,7.64,0,0,1-2.11,3.8c-.59.55-1.24,1-1.87,1.54-.34.27-.71.53-1.06.81l.12-.65c.11-.61.21-1.23.31-1.84.23-1.36.45-2.73.66-4.09.41-2.68.79-5.39,1.34-8,0-.1-.14-.15-.16,0-.67,2.63-1.41,5.24-2,7.89-.29,1.3-1.3,7.72-1.35,8.18s-.08.94-.1,1.41a5.34,5.34,0,0,0,0,1.44.12.12,0,0,0,.22,0h0a5.64,5.64,0,0,0,.41-1.4c.12-.46.22-.92.31-1.39,0-.17.05-.34.07-.51.64-.39,1.22-.89,1.82-1.32s1.28-.91,1.89-1.42a7.26,7.26,0,0,0,2.3-3.61,25.64,25.64,0,0,0,.76-4.61c.2-1.83.35-3.66.61-5.48C200.25,217.05,200.09,217,200.07,217.11Z" style="fill:#37474f"></path><path d="M189.05,148.92c8,24.61,17.64,47.82,26.13,49.7,1.47.32,9.84.46,13.21-4.7,5.67-8.7,12.69-26.77,14.74-35.59.91-3.91-24.95-12.36-26.46-8.34-2.11,5.63-2.86,10.18-3.47,10-1-.29-5.8-8-14.87-18.3C185.86,127.56,186.38,140.76,189.05,148.92Z" style="fill:#ad6359"></path><path d="M248.78,148.34c-1.61,5.44-9.26,15.29-12,16.95s-19.93-10.77-20-14.08,6.73-21.21,11.48-24.52S250.44,142.7,248.78,148.34Z" style="fill:#ad6359"></path><path d="M217.37,148a47.16,47.16,0,0,0-3.26-13.3c-2.23-5-6.11-12.15-3.47-13.45,5.41-2.67,15.09,15.18,15.09,15.18s3,8.57-2.13,11.69A6,6,0,0,1,217.37,148Z" style="fill:#ad6359"></path><polygon points="233.49 145.85 240.93 143.37 233.72 121.81 224.31 124.96 233.49 145.85" style="fill:#FF644F"></polygon><polygon points="224.31 124.96 227.81 132.93 233.49 145.86 240.93 143.37 233.72 121.81 224.31 124.96" style="fill:#FF644F"></polygon><polygon points="224.31 124.96 227.81 132.93 236.47 130.03 233.72 121.81 224.31 124.96" style="opacity:0.1"></polygon><rect x="222.69" y="117.34" width="12.36" height="9.39" transform="translate(484.61 165.17) rotate(161.51)" style="fill:#FF644F"></rect><polygon points="212.58 118.91 221.99 116.78 217.17 102.37 208.37 106.32 212.58 118.91" style="fill:#FF644F"></polygon><polygon points="220.9 97.95 228.01 119.21 243.89 115.93 283.77 117.12 266.7 66.07 235.56 91.02 220.9 97.95" style="fill:#FF644F"></polygon><ellipse cx="276.06" cy="91.32" rx="8.69" ry="27.05" transform="translate(-14.71 92.27) rotate(-18.49)" style="fill:#FF644F"></ellipse><path d="M269.59,93c4.21,12.58,10.64,21.77,14.37,20.52s3.34-12.45-.87-25S272.46,66.72,268.73,68,265.39,80.42,269.59,93Z" style="opacity:0.2"></path><path d="M270.69,92.63c.56,1.67,1.16,3.29,1.79,4.82a5.36,5.36,0,0,0,7-6.73l-.8-2.41a5.37,5.37,0,0,0-9.6-1.22Q269.75,89.79,270.69,92.63Z" style="fill:#FF644F"></path><polygon points="220.16 123.14 238.35 119.02 229.04 91.16 212.03 98.81 220.16 123.14" style="fill:#FF644F"></polygon><polygon points="220.16 123.14 238.35 119.02 229.04 91.16 212.03 98.81 220.16 123.14" style="opacity:0.2"></polygon><path d="M265.48,70.37a17,17,0,0,0-1,6,38.56,38.56,0,0,0,.43,6.07c.12,1,.33,2,.51,3s.44,2,.69,3,.51,2,.81,2.93.59,2,.92,2.91a65.89,65.89,0,0,0,4.85,11.14,35.17,35.17,0,0,0,3.42,5,14.49,14.49,0,0,0,4.65,3.85,14.83,14.83,0,0,1-4.43-4,35.49,35.49,0,0,1-3.25-5.07A69.64,69.64,0,0,1,268.38,94a71.63,71.63,0,0,1-3-11.68,37.75,37.75,0,0,1-.58-6A17.45,17.45,0,0,1,265.48,70.37Z" style="opacity:0.2"></path><path d="M283.93,63c-1,1-1.87,2.09-2.77,3.17s-1.77,2.16-2.64,3.27-1.7,2.21-2.51,3.35l-1.22,1.72c-.39.58-.8,1.15-1.17,1.75.49-.51.94-1,1.41-1.56l1.36-1.61c.9-1.07,1.77-2.17,2.63-3.27s1.71-2.22,2.52-3.36S283.17,64.14,283.93,63Z" style="fill:#263238"></path><path d="M282.25,104.63c1.58.16,3.15.26,4.73.35s3.15.14,4.73.19,3.16.06,4.74,0l2.37,0c.79,0,1.57,0,2.37-.1-.79-.09-1.58-.14-2.37-.21l-2.36-.14c-1.58-.1-3.16-.14-4.73-.19s-3.16-.06-4.74,0S283.83,104.53,282.25,104.63Z" style="fill:#263238"></path><path d="M310.19,94.89c-2.31.16-4.62.39-6.93.63s-4.61.52-6.92.8-4.6.6-6.89,1L286,97.8c-1.15.19-2.29.37-3.44.59,1.16-.08,2.32-.19,3.48-.29l3.46-.34c2.31-.24,4.61-.52,6.91-.81s4.61-.6,6.9-1S307.91,95.31,310.19,94.89Z" style="fill:#263238"></path><path d="M296.81,61.5c-1.77,1.56-3.5,3.16-5.22,4.77s-3.41,3.24-5.09,4.88-3.35,3.3-5,5L279,78.67c-.8.86-1.62,1.71-2.41,2.58.89-.77,1.75-1.57,2.63-2.36l2.59-2.4c1.72-1.61,3.4-3.24,5.09-4.89s3.35-3.3,5-5S295.22,63.24,296.81,61.5Z" style="fill:#263238"></path><path d="M280.33,89.68c2.61-.77,5.2-1.6,7.79-2.44s5.15-1.73,7.72-2.6,5.13-1.79,7.68-2.73l3.82-1.42c1.27-.49,2.55-1,3.81-1.48-1.31.38-2.61.8-3.91,1.19l-3.88,1.25c-2.58.84-5.15,1.73-7.72,2.6s-5.13,1.79-7.68,2.73S282.86,88.66,280.33,89.68Z" style="fill:#263238"></path><path d="M221.94,133.25c.76,2.91,3.75.35,3.75.35s-3.42,4.73-1.47,7.42,5.39-.63,5.64-.86c-.18.25-3.2,4.68-1,7.19s5.29-1.24,5.48-1.49c-.1.29-1.28,4.15.86,5.67,3.66,2.61,6.94-7.19,10.26-8.67,0,0,3.16,5.34,3.29,5.48s3.31-9.26,1.06-13.63a3.14,3.14,0,0,0-3.57-1.65s1.4-2.87-.3-4.89c-.87-1-3.31-.57-3.31-.57a3.94,3.94,0,0,0-.6-4c-1.29-1.37-3.54-.68-3.54-.68s-.06-2.71-1.83-3.68C233.12,117.22,220.31,127,221.94,133.25Z" style="fill:#ad6359"></path><path d="M238.15,122.92a0,0,0,1,0,0-.08,28,28,0,0,0-12.6,10.88c-.09.15.12.37.26.22A57.26,57.26,0,0,1,238.15,122.92Z" style="fill:#263238"></path><path d="M242.7,127.52c.06,0,0-.12-.06-.09a26.21,26.21,0,0,0-13,12.72c-.09.2,0,.47.15.24C231.78,136.64,238.31,130.33,242.7,127.52Z" style="fill:#263238"></path><path d="M234.33,146.33c2.67-5.51,6.84-9.6,11.72-13.19.07,0,0-.13-.07-.11-2.87,1.11-5.74,3.72-7.81,5.94a16.13,16.13,0,0,0-4,7.26C234.11,146.34,234.27,146.44,234.33,146.33Z" style="fill:#263238"></path><path d="M225.59,133.61c-.11.18.28.14.18.33-.44.8-2.64,5.83-1.16,7.12,1.19,1,3.4.13,4.11-.54l1.79-1.69L229.42,141a9.87,9.87,0,0,0-1,3.12,3.57,3.57,0,0,0,.65,2.87,2.06,2.06,0,0,0,2.52.61,6.22,6.22,0,0,0,2.35-2l1.73-2.36-.86,2.78a9.59,9.59,0,0,0-.42,2.38,3.92,3.92,0,0,0,.47,2.21,1.86,1.86,0,0,0,1.74.89,4.11,4.11,0,0,0,2-1.13,32.43,32.43,0,0,0,3.3-3.85c.53-.67,1.06-1.34,1.62-2a6.08,6.08,0,0,1,2-1.66,6.59,6.59,0,0,0-1.77,1.8c-.5.69-1,1.4-1.45,2.11a27.41,27.41,0,0,1-3.17,4.1,4.77,4.77,0,0,1-2.35,1.43,2.62,2.62,0,0,1-2.62-1.21,4.71,4.71,0,0,1-.65-2.72,10,10,0,0,1,.42-2.66l.87.42a7.12,7.12,0,0,1-2.75,2.46,3,3,0,0,1-2,.19,3.48,3.48,0,0,1-1.67-1.1,4.58,4.58,0,0,1-.82-3.65,11.13,11.13,0,0,1,1.13-3.41l.7.52c-.93.83-3.29,2.09-5.34.73C221.6,139.7,224.91,134.51,225.59,133.61Z" style="fill:#263238"></path><path d="M225.69,133.6a6,6,0,0,1-1.73.65,1.39,1.39,0,0,1-1.35-.42,2.9,2.9,0,0,1-.5-1.53c0-.61-.06-1.24-.05-1.9a4.66,4.66,0,0,0-.6,1.89,2.82,2.82,0,0,0,.51,2.09,2,2,0,0,0,1,.61,2.12,2.12,0,0,0,1.13-.11A3.2,3.2,0,0,0,225.69,133.6Z" style="fill:#263238"></path><path d="M246.23,166.22,216.77,149s-3.32,10.2-3.7,10.2-7.88-12-17.46-20.83c-9.86-9.12-10,1.17-7.65,10.09,2.55,9.75,16.35,46.33,24.67,50.3,7,3.36,14.78-1.62,16.93-4.43C232.53,190.46,246.23,166.22,246.23,166.22Z" style="fill:#FF644F"></path><path d="M241.52,169.35c-1-.72-10.18-5.93-12.21-7l-6.09-3.26c-2.11-1.12-4.19-2.36-6.38-3.31a.08.08,0,0,0-.08.14c2,1.34,4.13,2.44,6.2,3.61s4.08,2.33,6.13,3.48,11.29,6.1,12.37,6.5C241.56,169.53,241.59,169.4,241.52,169.35Z" style="fill:#263238"></path><path d="M213.13,159.25c-.5,1.66-.9,3.35-1.26,5s-.69,3.4-1,5.11-.5,3.42-.65,5.15a47.48,47.48,0,0,0-.2,5.2c.14-.86.22-1.72.37-2.57s.24-1.71.37-2.56l.8-5.12.79-5.11.39-2.57C212.89,161,213,160.11,213.13,159.25Z" style="fill:#263238"></path><path d="M221.79,199.22a12.45,12.45,0,0,1-9.16-.47c-8.32-4-22.12-40.55-24.67-50.3-1.81-6.93-2.14-14.68,2.42-13.53C196.54,147.43,212.43,180,221.79,199.22Z" style="opacity:0.1"></path><path d="M148.56,220.85c.16.18,64.3-1.24,64.93-2,.87-1-11.89-67.73-20.06-81.84-2.49-4.3-13-8.68-18.94-.18C163.91,152,148,220.2,148.56,220.85Z" style="fill:#FF644F"></path><polygon points="187.65 149.8 189.93 145.25 193.63 148.83 192.59 152.12 189.13 152.38 187.65 149.8" style="fill:#263238"></polygon><polygon points="189.13 152.38 186.47 190.74 193.17 203.13 198.79 190.53 192.59 152.12 189.13 152.38" style="fill:#263238"></polygon><path d="M169.36,140.62c-12.82,14.47-34.7,53.13-29.62,59.22,11.51,13.83,33,26.94,41.67,30.54,3.75,1.55,20.45-25.11,17-27.79-4.09-3.22-31-17.08-31-18.45S174.69,164,178,149C182,130.39,174.7,134.58,169.36,140.62Z" style="fill:#ad6359"></path><path d="M184.56,200s11.89-2.21,19.74-3.28c4.37-.6,12-1,15.39.06C224.8,198.29,245.19,208,243,213c-2,4.52-18.5-6-18.5-6s17.56,9.19,14.11,14.19-20.47-9.42-20.47-9.42,17.83,9.85,13.46,14.44c-3.31,3.46-19.45-8.71-19.45-8.71s15.26,8.56,12,12.28c-3.59,4.1-19.2-6.21-19.2-6.21-9.83,8-17.69,8.45-23.46,7C180.11,230.24,184.56,200,184.56,200Z" style="fill:#ad6359"></path><path d="M219.4,203.85c13.45,5.78,18.27,12.73,18.11,12.57-3.92-3.75-11-8.11-13-9.3s-3.13-2-5.13-3.2C219.3,203.89,219.35,203.82,219.4,203.85Z" style="fill:#263238"></path><path d="M214.16,210.55a49.58,49.58,0,0,1,15.14,9c.17.16.06.18-.13.06-2.51-1.58-12.47-7.6-15-9A0,0,0,0,1,214.16,210.55Z" style="fill:#263238"></path><path d="M209.26,216a37,37,0,0,1,11.52,7.35c.17.15,0,.19-.19.07-3.78-2.52-6.73-4.52-11.39-7.28C209.12,216.11,209.18,216,209.26,216Z" style="fill:#263238"></path><path d="M190.68,196.74l-19.61,30.53s-32.74-22.83-32.93-30.66c-.28-11,24.35-49.51,31.47-56.94,6.95-7.25,11.52-6.18,9.63,4.49-1.72,9.71-10.31,38.85-10.26,39.27S190.68,196.74,190.68,196.74Z" style="fill:#FF644F"></path><path d="M166,221.25c3-4.39,14.77-22.82,17-27,.15-.29,0-.46-.19-.18-9.4,12.94-14.27,22.57-17,27A.1.1,0,0,0,166,221.25Z" style="fill:#263238"></path><path d="M177.39,152.36c0-.13.26-.09.24,0-.27,1.33-.73,3.28-1.3,5.57l.18-.37a30.76,30.76,0,0,0,1.14-2.88c0-.11.19-.05.16.05-.33,1-.66,2-1.05,3a17.39,17.39,0,0,1-.85,1.93c-2.43,9.55-6.23,23.22-6.19,23.56.08.57,17.58,11,21.13,13.3.13.08-.56,1-.64,1.12a.1.1,0,0,1-.19-.06,5.19,5.19,0,0,1,.31-.78c-3.39-1.85-21.28-12.61-21.58-13.18S176.13,156.43,177.39,152.36Z" style="fill:#263238"></path><path d="M150.32,211.36c1,.63,10.64,8.48,11.67,9.21.08.06,0,.17-.09.12-4.06-2.06-10.72-7.81-11.64-9.26A0,0,0,0,1,150.32,211.36Z" style="fill:#263238"></path><path d="M189.51,144.85c-3.54.36-9.44-6.21-11.2-10.78-.12-.31.74-3.33,1.61-7,.52-2.26,1-4.78,1.35-7.12l14.19,5.52a37.41,37.41,0,0,0-2.62,8.78,5.29,5.29,0,0,0,0,1v.17C192.87,137.21,192.94,144.51,189.51,144.85Z" style="fill:#ad6359"></path><path d="M191.3,135.22a9.24,9.24,0,0,0,1.51.13c0-.07,0-.12,0-.17a5.31,5.31,0,0,1,0-1,37.77,37.77,0,0,1,2.61-8.79l-13.73-5.34C181.89,123.5,183.08,133.94,191.3,135.22Z" style="fill:#263238"></path><path d="M178.28,105c-1.55,5.26,1.34,20.39,5.1,23.73,5.45,4.85,14.31,5.24,18.41-1.29,4-6.34-.15-26-4.34-29C191.28,93.91,180.58,97.19,178.28,105Z" style="fill:#ad6359"></path><path d="M191.07,114.5s-.07.07-.06.11c.22,1,.3,2.21-.56,2.72,0,0,0,.07,0,.06C191.57,117,191.44,115.43,191.07,114.5Z" style="fill:#263238"></path><path d="M190,113.61c-1.67.18-1.18,3.49.36,3.32S191.35,113.46,190,113.61Z" style="fill:#263238"></path><path d="M197.27,113.61s.09,0,.09.08c.12,1,.43,2.19,1.41,2.39,0,0,0,.06,0,.06C197.61,116.15,197.22,114.6,197.27,113.61Z" style="fill:#263238"></path><path d="M198,112.4c1.63-.37,2.25,2.93.73,3.27S196.66,112.71,198,112.4Z" style="fill:#263238"></path><path d="M188.43,112.28a11.67,11.67,0,0,0,1.21-.64,2.24,2.24,0,0,0,1.12-.88.7.7,0,0,0-.24-.84,1.76,1.76,0,0,0-1.77.08,2.59,2.59,0,0,0-1.31,1.32A.75.75,0,0,0,188.43,112.28Z" style="fill:#263238"></path><path d="M199.07,110.54a12.46,12.46,0,0,1-1.37-.14,2.29,2.29,0,0,1-1.37-.42.71.71,0,0,1-.08-.86,1.75,1.75,0,0,1,1.68-.58,2.52,2.52,0,0,1,1.7.75A.74.74,0,0,1,199.07,110.54Z" style="fill:#263238"></path><path d="M191.47,124c.28.21.57.5.95.48a2.67,2.67,0,0,0,1.07-.42,0,0,0,0,1,0,0,1.41,1.41,0,0,1-1.22.75,1.12,1.12,0,0,1-.94-.79C191.35,124,191.43,124,191.47,124Z" style="fill:#263238"></path><path d="M192.1,120.75a3.54,3.54,0,0,0,2.56,1.22,4.46,4.46,0,0,0,1.26-.13.84.84,0,0,0,.24-.06l.22-.07a.24.24,0,0,0,.17-.26h0s0-.06,0-.1h0l0-.09c-.09-.79-.35-2-.35-2,.31.1,1.88.55,1.8.14A53.24,53.24,0,0,0,195.05,109a.09.09,0,0,0-.18,0c.55,3.29,1.67,6.45,2.27,9.74a6.09,6.09,0,0,0-1.72-.26c-.11,0,.53,2.29.54,2.65a0,0,0,0,1,0,0,4.92,4.92,0,0,1-3.78-.59C192.1,120.6,192,120.68,192.1,120.75Z" style="fill:#263238"></path><path d="M195.4,121.51a4.16,4.16,0,0,1-1.47,1.53,1.86,1.86,0,0,1-1.12.23c-.86-.09-1-.84-.93-1.51a4.3,4.3,0,0,1,.22-1A5.46,5.46,0,0,0,195.4,121.51Z" style="fill:#263238"></path><path d="M193.93,123a1.86,1.86,0,0,1-1.12.23c-.86-.09-1-.84-.93-1.51A2,2,0,0,1,193.93,123Z" style="fill:#ff98b9"></path><path d="M179.74,118s-4.94-8.62-4.34-13.52c.27-2.21,3.33-3.63,3.33-3.63a5,5,0,0,1,1.71-5c2.68-2.41,9-1.7,9-1.7s4.26-5.86,10-3.35,1.82,9,1.82,9,2.07,3.08-3.22,5.33c-5.14,2.19-15.49-.34-15.49-.34a36.33,36.33,0,0,1-.42,10.77A3.3,3.3,0,0,1,179.74,118Z" style="fill:#263238"></path><path d="M190.47,94.25a10.18,10.18,0,0,0-4.08-.85,11.08,11.08,0,0,0-3.71.49,6.12,6.12,0,0,0-4.43,4.5,4.33,4.33,0,0,0,.74,3.25s.08,0,0,0c-1.3-1.71-.53-4.29.89-5.65a9.29,9.29,0,0,1,6.21-2.12,17.78,17.78,0,0,1,4.29.56A.07.07,0,0,0,190.47,94.25Z" style="fill:#263238"></path><path d="M203.61,93.71a5,5,0,0,0-3.38-3.27,8.58,8.58,0,0,0-5.53.06,10.72,10.72,0,0,0-4.59,3.24s0,.08.06.05a9.41,9.41,0,0,1,9.09-3.14,5.16,5.16,0,0,1,3.67,2.64,5.1,5.1,0,0,1-.23,4.33,9.69,9.69,0,0,1-3.84,3.67s0,.07,0,0a10,10,0,0,0,3.81-3.09A5.61,5.61,0,0,0,203.61,93.71Z" style="fill:#263238"></path><path d="M199.36,105.46a17.57,17.57,0,0,1-7.36,1.09,36.49,36.49,0,0,1-7.7-1.24c-1.46-.39-2.91-.84-4.35-1.31,0,0-.07,0,0,.07a39.41,39.41,0,0,0,7.83,2.63,19.74,19.74,0,0,0,7.62.11,16.43,16.43,0,0,0,4-1.3S199.39,105.44,199.36,105.46Z" style="fill:#263238"></path><path d="M181.62,117.27s-3.56-4.8-5.75-3.51.59,8.31,3.23,9.2a2.64,2.64,0,0,0,3.51-1.53Z" style="fill:#ad6359"></path><path d="M176.72,115.75a0,0,0,0,0,0,.07c1.85.69,2.86,2.36,3.58,4.1a1.46,1.46,0,0,0-2.2-.34c-.05,0,0,.11,0,.1a1.64,1.64,0,0,1,1.82.51,8.18,8.18,0,0,1,.9,1.43c.09.16.38.07.31-.12v0C181.14,119.13,179.23,115.91,176.72,115.75Z" style="fill:#263238"></path><path d="M192.86,134.46l-3.37,8.78-11-10.88-3,3.59s10.88,17.39,10.94,16.6l3.48-7.58,5.27,5.15L194.52,137Z" style="fill:#FF644F"></path><path d="M195.2,143.61c-.17-2.17-.29-4.35-.56-6.51,0-.07-.14-.1-.15,0-.4,2.1.31,10.37.33,12.36l0,0c-.22-.22-4.89-4.53-4.93-4.46-.76,1.2-3.32,6.72-3.49,7.23-1.72-2.77-9-13.65-11-16.25a.08.08,0,0,0-.13.08c1.53,2.92,10.95,17.28,11.08,17.24a85.46,85.46,0,0,0,3.64-8c.8.95,5.51,5.82,5.52,5.49A65.34,65.34,0,0,0,195.2,143.61Z" style="fill:#263238"></path></g><g id="freepik--speech-bubble--inject-12"><path d="M123.49,86.25a20,20,0,0,0,32,16.07l9.81,2.51-4.08-9.14a20,20,0,1,0-37.68-9.44Z" style="fill:#fff"></path><path d="M123.49,86.25a20.15,20.15,0,0,0,3,10.47,23.38,23.38,0,0,0,1.6,2.24,22.44,22.44,0,0,0,1.92,2,19.08,19.08,0,0,0,4.53,3.08,19.84,19.84,0,0,0,5.2,1.71,17.66,17.66,0,0,0,2.72.28,16.6,16.6,0,0,0,2.73-.05,19.59,19.59,0,0,0,10-3.92l.13-.1.17,0,9.83,2.42-.51.61-4.12-9.12-.1-.21.11-.21a19.68,19.68,0,0,0,.67-17.14,20.68,20.68,0,0,0-5.25-7.11,19.56,19.56,0,0,0-7.85-4.11,20,20,0,0,0-8.9-.28,19.84,19.84,0,0,0-15.92,19.42Zm0,0a20.15,20.15,0,0,1,7.67-15.84,20.27,20.27,0,0,1,30.43,25.51l0-.42,4,9.15.37.84-.88-.24-9.79-2.58.3-.06a20.23,20.23,0,0,1-10.39,3.82,18.56,18.56,0,0,1-2.79,0,19.79,19.79,0,0,1-2.77-.35,20.24,20.24,0,0,1-9.75-5A24.15,24.15,0,0,1,128,99a23.7,23.7,0,0,1-1.59-2.27A20.14,20.14,0,0,1,123.49,86.25Z" style="fill:#263238"></path><path d="M148,80.86a4.52,4.52,0,1,1-4.51-4.52A4.51,4.51,0,0,1,148,80.86Z" style="fill:#455a64"></path><path d="M151.31,93.3V95H135.7V93.3a7.81,7.81,0,0,1,15.61,0Z" style="fill:#455a64"></path></g><g id="freepik--Chair--inject-12"><path d="M355.61,323h-61l1.91-38.58h35.95Zm-55.77-5h46.93L329.62,289.4H301.26Z" style="fill:#FF644F"></path><path d="M355.61,323h-61l1.91-38.58h35.95Zm-55.77-5h46.93L329.62,289.4H301.26Z" style="opacity:0.5"></path><path d="M352.28,323h-61l1.91-38.58h35.95Zm-55.77-5h46.93L326.29,289.4H297.92Z" style="fill:#FF644F"></path><path d="M352.28,323h-61l1.91-38.58h35.95Zm-55.77-5h46.93L326.29,289.4H297.92Z" style="opacity:0.30000000000000004"></path><rect x="277.94" y="323.95" width="8.35" height="5.93" transform="translate(564.23 653.84) rotate(180)" style="fill:#a6a6a6"></rect><rect x="274.56" y="329.88" width="15.1" height="53.19" transform="translate(564.23 712.96) rotate(180)" style="fill:#c7c7c7"></rect><rect x="289.66" y="359.65" width="6.64" height="2.8" transform="translate(585.96 722.09) rotate(180)" style="fill:#a6a6a6"></rect><rect x="296.3" y="358.17" width="13.5" height="5.76" transform="translate(606.09 722.09) rotate(180)" style="fill:#c7c7c7"></rect><rect x="272.62" y="383.08" width="19.46" height="17.55" transform="translate(564.69 783.71) rotate(180)" style="fill:#c7c7c7"></rect><polygon points="280.14 441.06 284.2 441.06 286.47 390.76 277.87 390.76 280.14 441.06" style="fill:#a6a6a6"></polygon><polygon points="335.37 432.36 338.97 429.6 292.08 388.16 292.08 400.63 335.37 432.36" style="fill:#a6a6a6"></polygon><polygon points="229.33 432.36 225.72 429.6 272.62 388.16 272.62 400.63 229.33 432.36" style="fill:#a6a6a6"></polygon><rect x="274.56" y="378.48" width="15.1" height="4.6" transform="translate(564.23 761.55) rotate(180)" style="fill:#a6a6a6"></rect><circle cx="335.53" cy="440.5" r="9.86" style="fill:#263238"></circle><path d="M330.89,440.5a4.64,4.64,0,1,0,4.64-4.64A4.63,4.63,0,0,0,330.89,440.5Z" style="fill:#fff"></path><circle cx="229.12" cy="440.5" r="9.86" style="fill:#263238"></circle><path d="M224.48,440.5a4.64,4.64,0,1,0,4.64-4.64A4.63,4.63,0,0,0,224.48,440.5Z" style="fill:#fff"></path><rect x="279.19" y="437.96" width="6.19" height="16.22" transform="translate(564.57 892.14) rotate(180)" style="fill:#263238"></rect><polygon points="220.11 323.95 356.34 323.95 356.34 313.6 305.34 313.6 288.2 209.88 225.31 209.88 220.11 323.95" style="fill:#FF644F"></polygon><polygon points="305.34 313.6 229.4 313.6 233.93 209.88 288.2 209.88 305.34 313.6" style="opacity:0.1"></polygon><rect x="276.98" y="313.6" width="79.36" height="10.36" style="fill:#fff;opacity:0.30000000000000004"></rect><path d="M282.69,323h-61l1.9-38.58h36Zm-55.76-5h46.93L256.71,289.4H228.34Z" style="fill:#FF644F"></path><path d="M282.69,323h-61l1.9-38.58h36Zm-55.76-5h46.93L256.71,289.4H228.34Z" style="opacity:0.5"></path><path d="M279.36,323h-61l1.9-38.58h36Zm-55.76-5h46.93L253.38,289.4H225Z" style="fill:#FF644F"></path><path d="M279.36,323h-61l1.9-38.58h36Zm-55.76-5h46.93L253.38,289.4H225Z" style="opacity:0.30000000000000004"></path></g><g id="freepik--Sign--inject-12"><rect x="218.47" y="244.23" width="84.3" height="29.19" transform="translate(-44.02 53.63) rotate(-10.84)" style="fill:#455a64"></rect><path d="M234.37,269.18a.52.52,0,0,0-.13-.06s0,0,0-.05a.39.39,0,0,1-.1-.08s0,0,0,0a.35.35,0,0,0-.1-.11l-5.77-8.69a.9.9,0,0,1,1.5-1l4.59,6.88L236,258a.91.91,0,0,1,1.78.37l-2.19,10.2a.42.42,0,0,1,0,.15h0s0,.08-.06.12a.09.09,0,0,1,0,.05.7.7,0,0,1-.08.1l0,0-.11.11s0,0,0,0a.27.27,0,0,0-.12.06h0l-.16,0-.16,0h-.17a0,0,0,0,0,0,0h0l-.17-.07Z" style="fill:#fff"></path><path d="M245.92,264.37l-3.93.75-.39,2.26a.93.93,0,0,1-.73.72.87.87,0,0,1-.32,0,.93.93,0,0,1-.76-1.06l1.75-10.21a.93.93,0,0,1,.75-.73.94.94,0,0,1,1,.4l5.39,8.84a.93.93,0,0,1-.31,1.27.76.76,0,0,1-.29.11.89.89,0,0,1-.94-.41Zm-1-1.65-2-3.23-.65,3.73Z" style="fill:#fff"></path><path d="M248.84,260.54a6.05,6.05,0,0,1,4.82-7,6.18,6.18,0,0,1,4,.55.95.95,0,0,1-.86,1.69,4.08,4.08,0,0,0-2.77-.39,4.37,4.37,0,0,0-2.69,1.72,4.08,4.08,0,0,0-.64,3,4,4,0,0,0,1.72,2.59,4.35,4.35,0,0,0,3.13.6A4.13,4.13,0,0,0,258,262a1,1,0,0,1,1.32-.07,1,1,0,0,1,.09,1.32,6.2,6.2,0,0,1-3.49,2A6,6,0,0,1,248.84,260.54Z" style="fill:#fff"></path><path d="M267.94,260.15l-3.93.76-.39,2.25a.94.94,0,0,1-.73.73,1.15,1.15,0,0,1-.32,0,.93.93,0,0,1-.75-1.07l1.75-10.2a.95.95,0,0,1,1.71-.33l5.4,8.84a.93.93,0,0,1-.31,1.26.89.89,0,0,1-.3.11.87.87,0,0,1-.93-.41Zm-1-1.65-2-3.22-.64,3.72Z" style="fill:#fff"></path><path d="M274.73,260.7A.9.9,0,1,1,273,261l-1.8-9.39v0a.88.88,0,0,1,.21-.81.91.91,0,0,1,1.27,0l6.6,6.23L278,250.34a.9.9,0,0,1,1.76-.34l1.8,9.39a.91.91,0,0,1-.72,1.06.89.89,0,0,1-.72-.19.45.45,0,0,1-.1-.09L273.45,254Z" style="fill:#fff"></path><path d="M290.53,248.72l-2.57.49,1.65,8.64a.91.91,0,1,1-1.78.34l-1.65-8.64-2.56.49a.91.91,0,0,1-1.06-.73.89.89,0,0,1,.72-1.06l6.9-1.32a.89.89,0,0,1,1.06.72A.92.92,0,0,1,290.53,248.72Z" style="fill:#fff"></path><path d="M299.27,236.56q-7-2.9-13.87-6.09c-4.59-2.1-9.14-4.29-13.67-6.5s-9-4.49-13.51-6.84-8.92-4.74-13.31-7.25q7,2.9,13.88,6.08c4.59,2.11,9.13,4.3,13.67,6.51s9,4.5,13.51,6.84S294.88,234.05,299.27,236.56Z" style="fill:#263238"></path><path d="M224.13,235.66c-1,2.94-2.2,5.77-3.46,8.57a87.54,87.54,0,0,1-4.2,8.18,91.37,91.37,0,0,1,3.47-8.57A89.94,89.94,0,0,1,224.13,235.66Z" style="fill:#263238"></path></g><g id="freepik--Plant--inject-12"><path d="M415.28,247s-20.48-2.87-15.69-27.59C399.59,219.41,422.47,224.55,415.28,247Z" style="fill:#FF644F"></path><path d="M415.28,247s-20.48-2.87-15.69-27.59C399.59,219.41,422.47,224.55,415.28,247Z" style="opacity:0.1"></path><path d="M414.24,241.84c-.4-1.25-.87-2.48-1.39-3.69,0-.16,0-.31-.05-.47l-.09-1-.15-2.21c-.08-1.48-.18-2.95-.2-4.43a.06.06,0,0,0-.12,0c0,1.48,0,3,0,4.44,0,.74.07,1.47.12,2.21l0,.49a44.38,44.38,0,0,0-4.1-7c-.71-1-1.45-1.93-2.24-2.84s-1.68-1.82-2.5-2.74a.06.06,0,0,0-.09.09,36.62,36.62,0,0,1,3.94,5.24c.63.94,1.21,1.91,1.77,2.89l-.19-.07-.73-.3-1.67-.63-3.29-1.22c-.07,0-.11.09-.05.11,1.09.44,2.17.89,3.24,1.36l1.59.68.8.33a2.9,2.9,0,0,0,.54.19c.42.74.83,1.49,1.2,2.25a51.91,51.91,0,0,1,2.5,5.9l.15.42a12.34,12.34,0,0,0-1.68-.81l-2.12-1c-1.43-.66-2.86-1.32-4.23-2.1-.07,0-.14.07-.06.11,1.4.77,2.78,1.58,4.19,2.35.7.38,1.41.75,2.13,1.1a6.55,6.55,0,0,0,1.93.77,24.16,24.16,0,0,1,1.34,5.81c.23,2.8.2,5.61.27,8.42,0,0,.07,0,.07,0,.21-2.54.32-5.1.33-7.65A22.12,22.12,0,0,0,414.24,241.84Z" style="fill:#263238"></path><path d="M411.09,227.3a24.45,24.45,0,0,0-.2,4.36,0,0,0,1,0,.06,0c.08-1.45.1-2.89.26-4.33C411.22,227.25,411.1,227.22,411.09,227.3Z" style="fill:#263238"></path><path d="M405.24,228.54a16.17,16.17,0,0,1-2.64-1.3c-.06,0-.12.07-.06.11a10,10,0,0,0,2.66,1.27C405.25,228.64,405.29,228.56,405.24,228.54Z" style="fill:#263238"></path><path d="M415.93,286.24c0-2.27-.06-4.53-.08-6.79-.05-7.52-.11-15-.24-22.54q-.17-9-.42-17.9s0,0-.05-.07l0-4.89s-.05-.06-.09-.06-.1,0-.1.06l0,4.9s-.05,0-.05.07c-.3,10.62-.57,21.23-.63,31.85,0,2.16,0,4.32,0,6.48q-.12,10.38-.08,20.77l0,3.3c0,6.34.07,12.67.07,19,0,.34.38.51.78.52s.95-.16.95-.55c0-7,.05-14,.05-21C416,295,416,290.64,415.93,286.24Z" style="fill:#263238"></path><path d="M407.38,279.36s-9.85-7.29-19.19-2.36-10.82,23.93-10.82,23.93,13.73,2,22.37-6.26C408.07,286.74,407.38,279.36,407.38,279.36Z" style="fill:#FF644F"></path><path d="M410.07,279.81a11.79,11.79,0,0,0-5.71-.74,8.13,8.13,0,0,0-1.21-.12l-1.38-.1c-1-.08-1.92-.14-2.88-.21-1.94-.14-3.89-.26-5.83-.46-.06,0-.08.12,0,.13,1.92.24,3.83.52,5.76.71,1,.1,2,.2,3,.27l.72.07-.88.22a23.56,23.56,0,0,0-4.46,1.81c-.77.14-1.55.36-2.31.54-1.22.29-2.43.6-3.64.92-2.39.62-4.76,1.33-7.13,2-.08,0,0,.14,0,.12,2.37-.58,4.75-1.12,7.13-1.68l3.46-.83.91-.21a28.6,28.6,0,0,0-7,6.09,38.14,38.14,0,0,0-4.87,7.67c0,.07.07.14.11.07a37.25,37.25,0,0,1,5.88-7.73c0,.13-.08.26-.13.39l-.54,1.74c-.37,1.16-.74,2.32-1.08,3.49,0,.07.09.1.12,0q.61-1.69,1.2-3.39c.2-.55.39-1.11.59-1.66.1-.29.2-.58.29-.87,0-.09.07-.17.1-.26a35,35,0,0,1,3.49-3,26.85,26.85,0,0,1,5.23-3c0,.18-.07.35-.1.51-.1.45-.2.9-.29,1.35-.19.93-.37,1.86-.56,2.8-.37,1.9-.6,3.83-.95,5.74a.06.06,0,1,0,.12,0c.44-1.92,1-3.8,1.44-5.72.21-1,.43-1.92.63-2.89l.27-1.35c.05-.25.11-.5.14-.75.18-.07.35-.16.53-.22a15.51,15.51,0,0,1,8.2-1.13,8.06,8.06,0,0,1,5.92,4.75c.09.22.43.08.38-.14A7.61,7.61,0,0,0,410.07,279.81Z" style="fill:#263238"></path><path d="M395,287.93c-.28,1.25-.56,2.49-.83,3.74a28.14,28.14,0,0,0-.69,3.64,0,0,0,0,0,.08,0,28.3,28.3,0,0,0,.84-3.67l.72-3.69A.06.06,0,0,0,395,287.93Z" style="fill:#263238"></path><path d="M385.47,291.1c-1.26.64-2.47,1.36-3.78,1.88-.09,0,0,.15.05.11a41.74,41.74,0,0,0,3.76-1.94S385.5,291.08,385.47,291.1Z" style="fill:#263238"></path><path d="M409.6,266s-12,.77-17.64-7.17-4.34-19.27-4.34-19.27,12.64,1.54,17.66,7.24S409.6,266,409.6,266Z" style="fill:#FF644F"></path><path d="M415.25,277.84c-.42-1.29-.94-2.56-1.42-3.83s-1-2.41-1.5-3.6a73.75,73.75,0,0,0-3.61-7.09c-.85-1.47-1.76-2.89-2.7-4.29,0-.21-.06-.42-.09-.64s-.11-.74-.17-1.11c-.12-.77-.25-1.53-.38-2.29-.28-1.66-.62-3.31-.88-5,0-.08-.14-.08-.13,0,.25,1.64.41,3.29.64,4.94.11.8.22,1.61.34,2.42,0,.29.09.58.14.87a85.32,85.32,0,0,0-6-7.72c-.28-.33-.58-.66-.87-1a2.36,2.36,0,0,0-.12-.28c-.08-.23-.17-.46-.26-.69-.17-.48-.35-1-.52-1.43-.34-1-.64-1.9-.9-2.87,0-.07-.13,0-.11,0,.24,1,.49,2,.78,3,.14.47.3.94.46,1.4l.09.23c-1.54-1.68-3.14-3.29-4.76-4.89a.06.06,0,0,0-.09.09,87.39,87.39,0,0,1,8.53,10.45,7.78,7.78,0,0,0-.89-.23c-.93-.18-1.86-.31-2.8-.43-2-.25-3.92-.49-5.87-.8a.06.06,0,0,0,0,.12c1.86.37,3.71.79,5.57,1.21.87.2,1.75.37,2.63.55a16.94,16.94,0,0,1,2.11.6c.19.28.4.55.59.83q1.32,1.94,2.56,3.92l-1.23-.24c-.93-.18-1.86-.35-2.8-.5-1.83-.3-3.67-.62-5.48-1a.06.06,0,0,0,0,.12c1.84.43,3.66.93,5.49,1.42.88.23,1.77.45,2.66.65l1.34.28a3.89,3.89,0,0,0,.54.1c1.75,2.85,3.41,5.77,4.93,8.74.67,1.31,1.32,2.64,1.95,4s1.19,2.76,1.78,4.15C414.9,278.25,415.34,278.14,415.25,277.84Z" style="fill:#263238"></path><path d="M402.93,250.18c-.23-1.15-.48-2.3-.73-3.44,0-.08-.14,0-.12,0,.23,1.12.45,2.25.65,3.39s.37,2.27.68,3.37a0,0,0,0,0,0,0A23.8,23.8,0,0,0,402.93,250.18Z" style="fill:#263238"></path><path d="M395.9,249.84c-.55-.28-1.14-.5-1.73-.73l-.91-.36-.46-.18a2.61,2.61,0,0,1-.51-.22c-.09-.07-.15.09-.06.1a2.57,2.57,0,0,1,.52.21l.45.21.88.39a18.26,18.26,0,0,0,1.78.7A.06.06,0,0,0,395.9,249.84Z" style="fill:#263238"></path><path d="M421.92,256.5s7.28-13.61,18.36-15.72,17.87,9.3,17.87,9.3-8.08,10.32-18.25,12.12S421.92,256.5,421.92,256.5Z" style="fill:#FF644F"></path><path d="M447.71,246.88a30.13,30.13,0,0,0-8.69.1l.49-.26,2.46-1.27c1.7-.88,3.42-1.82,5.21-2.54.08,0,0-.15-.06-.11-1.73.81-3.53,1.48-5.26,2.28-.87.4-1.73.82-2.58,1.27-.54.29-1.15.56-1.69.91a30.49,30.49,0,0,0-7,2.34l1.39-1.51c1-1.13,2-2.32,3.18-3.35.06-.05,0-.14-.09-.08-1.16,1.05-2.38,2-3.51,3.12-.55.53-1.07,1.08-1.58,1.65q-.37.42-.75.87a29.78,29.78,0,0,0-11.62,11.36,29.41,29.41,0,0,0-3.23,8.71c0,.07.09.12.12,0a33.47,33.47,0,0,1,8.14-13.79A32,32,0,0,1,437.45,248a32.44,32.44,0,0,1,10.25-.93C447.84,247.11,447.85,246.9,447.71,246.88Z" style="fill:#263238"></path><path d="M458.15,250.08s-8.08,10.32-18.26,12.12c-7.75,1.38-14.14-2.67-16.73-4.66l-.56-.92s5.25-4.42,15.17-7S458.15,250.08,458.15,250.08Z" style="opacity:0.1"></path><path d="M441.27,242a28.19,28.19,0,0,0-2.46,1.62,16.5,16.5,0,0,0-2.13,2,.06.06,0,0,0,.09.09c.74-.64,1.48-1.28,2.24-1.88a21.15,21.15,0,0,1,2.33-1.68A.07.07,0,0,0,441.27,242Z" style="fill:#263238"></path><path d="M447.36,244.33l-1.24.49-1.24.52c-.09,0,0,.18.05.14l1.23-.5c.42-.17.82-.36,1.23-.53C447.47,244.42,447.43,244.3,447.36,244.33Z" style="fill:#263238"></path><path d="M420.46,273.62s2,13.5,12.1,18.22,22.52,0,22.52,0S450.22,262.64,420.46,273.62Z" style="fill:#FF644F"></path><path d="M448.09,283.06c-.94-.11-1.87-.26-2.79-.43l-1.37-.26-.71-.14c-.27-.26-.54-.52-.82-.77a41.62,41.62,0,0,0-6.21-4.5,36.22,36.22,0,0,0-3.72-1.91h.19c1.11.05,2.23.09,3.34.15,2.23.1,4.46.15,6.68.29.08,0,.08-.12,0-.12-2.23-.15-4.46-.4-6.69-.59l-3.24-.29-1.68-.15-.43,0c-.57-.22-1.16-.42-1.75-.6a15.71,15.71,0,0,0-8.59-.48c-2.56.66-5.11,2.33-5.77,5,0,.09.12.16.16.06,1-2.25,3.45-3.38,5.71-3.85a13.86,13.86,0,0,1,4.59-.09,11.4,11.4,0,0,0,.52,2.05c.28.94.55,1.9.84,2.84.58,1.9,1.21,3.78,1.77,5.68,0,.07.14,0,.12,0-.47-1.89-.87-3.81-1.32-5.7l-.69-2.8a16,16,0,0,0-.52-1.91,21.11,21.11,0,0,1,2.64.62,36.74,36.74,0,0,1,4.6,1.68c.15,1,.36,1.92.58,2.87.28,1.19.59,2.37,1,3.53a.06.06,0,1,0,.11,0c0-.07,0-.15,0-.22h0c-.22-1.11-.47-2.21-.7-3.31-.19-.89-.36-1.78-.55-2.67a40.06,40.06,0,0,1,3.7,1.87c0,.28.09.56.13.81.07.46.16.92.24,1.38.19,1.05.4,2.08.65,3.11a49.47,49.47,0,0,0,1.74,5.87s0,.06,0,.08l.06.07a.06.06,0,0,0,.1-.06c-.47-2-1-4-1.44-6-.22-1-.44-2-.64-3-.1-.5-.2-1-.29-1.51,0-.14-.05-.29-.07-.45a41.13,41.13,0,0,1,3.95,2.64,42.22,42.22,0,0,1,6.05,5.52c.07.08.22,0,.15-.12a35.77,35.77,0,0,0-2.42-3c-.51-.55-1-1.08-1.58-1.6l.17,0,1.43.22c.94.12,1.88.22,2.82.32C448.14,283.19,448.17,283.07,448.09,283.06Z" style="fill:#263238"></path><path d="M441,287.64h0l-.06-.35c0-.15-.1-.29-.12-.44h0c-.21-.9-.38-1.81-.55-2.72,0-.07-.11-.05-.11,0a11.23,11.23,0,0,0,.78,3.52,0,0,0,0,0,.07,0Z" style="fill:#263238"></path><path d="M432.46,287.42s0-.05-.06-.06c-.28-1.19-.56-2.39-.8-3.59-.13-.63-.27-1.27-.39-1.9-.06-.34-.13-.68-.19-1a2.84,2.84,0,0,0-.21-.87.07.07,0,0,0-.12,0,6,6,0,0,0,.26,1.81c.12.66.25,1.31.39,2,.3,1.33.63,2.66,1,4,0,.07.14.05.13,0Z" style="fill:#263238"></path><path d="M447.16,279.17c-1.85-.25-3.7-.52-5.56-.74-.08,0-.11.11,0,.12,1.85.27,3.71.5,5.56.75C447.21,279.31,447.24,279.18,447.16,279.17Z" style="fill:#263238"></path><path d="M415.26,242s-6.21-27.25,23.07-38.28C438.33,203.69,446.44,239.56,415.26,242Z" style="fill:#FF644F"></path><path d="M421.58,226.51l.32-.19,1.65-.92,3.4-1.9c2.23-1.25,4.44-2.55,6.69-3.78.07,0,0-.14-.07-.1-2.25,1.22-4.55,2.37-6.81,3.57L423.4,225l-1.37.73c1-1.86,2-3.67,3.17-5.42,1.53-2.33,3.2-4.56,4.95-6.73a.1.1,0,0,0-.15-.14,46.55,46.55,0,0,0-6.76,8.3v-.28c0-.68.05-1.36.07-2,0-1.33-.05-2.66,0-4a.06.06,0,0,0-.12,0c-.06,1.31-.22,2.62-.29,3.93,0,.65-.07,1.3-.09,2,0,.35,0,.75,0,1.14-.6,1-1.18,1.93-1.73,2.92a52.94,52.94,0,0,0-2.61,5.48c0-.67-.07-1.35-.11-2-.09-1.49-.27-3-.34-4.47a.06.06,0,0,0-.12,0c0,1.5,0,3,0,4.48,0,.75,0,1.49.09,2.24,0,.27,0,.55.05.83a49.76,49.76,0,0,0-2.21,7.49,81.28,81.28,0,0,0-1.09,8.23s0,0,0,0a44.9,44.9,0,0,1,1.56-7.33c.36-1.29.74-2.57,1.15-3.84,1.22-.57,2.39-1.29,3.56-1.94l3.68-2c2.44-1.34,4.88-2.7,7.4-3.89.07,0,0-.13-.07-.1-2.55,1.15-5.12,2.25-7.63,3.51-1.24.63-2.47,1.3-3.69,2-1,.58-2.06,1.15-3,1.81.28-.85.58-1.69.9-2.53C419.46,231,420.47,228.7,421.58,226.51Z" style="fill:#263238"></path><path d="M419.11,220.28a.06.06,0,1,0-.12,0c.11,1.55.16,3.1.32,4.65a.07.07,0,0,0,.14,0C419.4,223.38,419.23,221.84,419.11,220.28Z" style="fill:#263238"></path><path d="M433.15,225.49c-1.83.73-3.68,1.43-5.5,2.2,0,0,0,.1,0,.08,1.85-.69,3.68-1.45,5.52-2.16C433.26,225.58,433.23,225.46,433.15,225.49Z" style="fill:#263238"></path><path d="M435.93,212.92a48.06,48.06,0,0,0-5.2,2.79.08.08,0,1,0,.08.13c1.7-1,3.43-1.94,5.19-2.82C436.07,213,436,212.89,435.93,212.92Z" style="fill:#263238"></path><rect x="393.27" y="300.89" width="42.22" height="44.5" style="fill:#455a64"></rect><rect x="390.37" y="316.64" width="2.16" height="76.23" style="fill:#263238"></rect><rect x="436.01" y="316.64" width="2.16" height="76.23" style="fill:#263238"></rect><rect x="414.34" y="316.64" width="2.16" height="76.23" style="fill:#263238"></rect><rect x="391.44" y="342.54" width="45.64" height="6.16" style="fill:#263238"></rect></g></svg>